<svg xmlns="http://www.w3.org/2000/svg" version="1.1" xmlns:xlink="http://www.w3.org/1999/xlink" xmlns:svgjs="http://svgjs.dev/svgjs" width="165" height="90"><svg width="165" height="90" viewBox="0 0 165 90" fill="none" xmlns="http://www.w3.org/2000/svg">
<path d="M152.527 0.0139896C152.044 0.0119352 151.561 0.00988092 151.064 0.00776435C149.453 0.00253022 147.842 0.00666593 146.231 0.0108147C145.073 0.00902941 143.915 0.00668419 142.757 0.003822C139.615 -0.00217884 136.473 0.000146242 133.33 0.00432121C130.034 0.00766056 126.739 0.00456135 123.443 0.00249579C117.902 9.97562e-05 112.362 0.00325614 106.822 0.0095287C100.435 0.0166768 94.0478 0.0143876 87.6608 0.00712354C82.1657 0.00112598 76.6707 0.000315362 71.1756 0.00375057C67.899 0.00579416 64.6224 0.0061038 61.3458 0.00172719C58.2589 -0.00210764 55.1722 0.000617771 52.0853 0.00817235C50.959 0.00989808 49.8327 0.00944052 48.7063 0.00650957C34.9376 -0.0259853 22.3882 1.68753 11.7443 11.4159C4.47294 19.2243 0.285015 28.6586 0.204314 39.3392C0.199994 39.8151 0.195673 40.2909 0.191222 40.7813C0.178343 42.344 0.170604 43.9068 0.164024 45.4696C0.161345 46.0059 0.158669 46.5421 0.155908 47.0947C0.142237 49.9297 0.132809 52.7648 0.126624 55.5999C0.119333 58.5225 0.0966826 61.4447 0.0706237 64.3672C0.0534232 66.621 0.0479337 68.8748 0.0455731 71.1287C0.0423765 72.2061 0.0347401 73.2834 0.022529 74.3607C0.00648823 75.8688 0.00713021 77.3761 0.0116941 78.8842C0.00783722 79.7408 0.00398032 80.5974 6.5266e-06 81.4799C0.388409 84.2938 1.07283 85.6293 2.95059 87.7539C6.49999 89.8248 9.59754 90.014 13.584 89.9848C14.4637 89.99 14.4637 89.99 15.3613 89.9953C17.2899 90.0039 19.2181 89.9982 21.1467 89.9915C22.4953 89.9929 23.8439 89.9948 25.1924 89.9973C28.016 90.0002 30.8395 89.996 33.663 89.9867C37.2686 89.9755 40.874 89.9819 44.4796 89.9938C47.2643 90.0009 50.049 89.9986 52.8338 89.9935C54.1625 89.9922 55.4912 89.9938 56.8198 89.9984C58.684 90.0035 60.5477 89.9957 62.4118 89.9848C62.9527 89.9888 63.4936 89.9928 64.0509 89.9969C70.2666 89.9299 76.0965 88.3385 80.5327 83.8032C85.2401 77.7336 87.9801 70.8051 89.7374 63.3915C90.5552 63.4221 91.3731 63.4527 92.2157 63.4841C101.737 63.7363 108.545 62.4656 116.036 56.1487C120.039 52.3041 124.2 47.4269 125.698 41.9742C126.209 40.1585 126.584 39.1054 127.871 37.7124C130.453 36.9092 132.968 36.5336 135.64 36.1717C141.837 35.3044 147.254 32.21 152.198 28.4942C152.726 28.1054 153.255 27.7167 153.8 27.3162C155.749 25.6322 157.275 23.7539 158.813 21.704C159.09 21.3462 159.367 20.9885 159.652 20.6199C162.936 16.3016 165.208 12.7616 164.985 7.15657C164.5 4.35516 163.568 3.33705 161.402 1.49809C158.381 0.229628 155.787 0.0158672 152.527 0.0139896ZM152.198 11.3747C151.785 12.1075 151.373 12.8403 150.949 13.5953C150.717 14.0075 150.485 14.4197 150.246 14.8444C146.681 20.8313 140.13 23.7433 133.788 25.8604C131.474 26.4109 129.334 26.6032 126.958 26.6097C126.255 26.6133 125.553 26.6169 124.829 26.6206C124.066 26.6213 123.302 26.622 122.515 26.6227C121.705 26.626 120.896 26.6294 120.061 26.6328C118.304 26.6399 116.547 26.6458 114.79 26.65C112.01 26.6571 109.231 26.6704 106.451 26.685C98.5488 26.7257 90.6463 26.7614 82.7437 26.7831C78.3761 26.7952 74.0086 26.8143 69.6411 26.8411C67.3315 26.8549 65.022 26.8651 62.7123 26.8666C60.1373 26.8683 57.5624 26.8851 54.9875 26.9031C54.2237 26.9011 53.4599 26.8991 52.6729 26.8971C51.9706 26.9044 51.2682 26.9117 50.5446 26.9192C49.9362 26.9214 49.3277 26.9235 48.7008 26.9258C46.6367 27.2313 45.3906 27.9254 43.7141 29.1526C42.9436 31.1074 42.9932 32.1719 43.4675 34.2144C44.6756 36.2492 45.3819 36.3974 47.6589 37.0539C49.8552 37.2543 52.0443 37.2588 54.2486 37.2639C55.2401 37.2738 55.2401 37.2738 56.2516 37.2839C58.4323 37.3042 60.6129 37.3154 62.7937 37.3265C64.3073 37.3389 65.8209 37.3518 67.3345 37.3652C71.3153 37.399 75.2962 37.4251 79.2771 37.4496C83.3404 37.4759 87.4038 37.5096 91.4671 37.5426C99.4377 37.6063 107.408 37.6619 115.379 37.7124C113.348 44.0765 109.494 48.4644 103.544 51.5396C99.9583 53.0559 96.6709 53.0495 92.8458 53.0455C92.175 53.05 91.5043 53.0545 90.8132 53.0592C89.3614 53.0681 87.9095 53.0741 86.4577 53.0774C84.1617 53.0829 81.8659 53.0964 79.57 53.112C73.8707 53.1491 68.1714 53.1724 62.472 53.196C57.6505 53.2166 52.829 53.2424 48.0075 53.2752C45.7424 53.2885 43.4774 53.2939 41.2123 53.2991C39.8292 53.3077 38.4462 53.3166 37.0631 53.3259C36.1147 53.3249 36.1147 53.3249 35.1472 53.3239C34.5693 53.3294 33.9914 53.3348 33.396 53.3404C32.8939 53.3424 32.3917 53.3443 31.8744 53.3463C30.5646 53.5149 30.5646 53.5149 28.5921 54.8318C28.0427 57.1176 27.7 58.7538 28.4689 61.0047C29.2496 62.0747 29.2496 62.0747 30.5646 62.7331C32.0815 62.8129 33.6008 62.85 35.1197 62.8683C35.588 62.8748 36.0563 62.8813 36.5389 62.8881C38.0899 62.9089 39.6409 62.9252 41.192 62.9414C42.2662 62.955 43.3404 62.9688 44.4146 62.9829C47.2443 63.0193 50.0741 63.0518 52.9038 63.0835C55.7904 63.1166 58.677 63.1533 61.5635 63.1896C67.2291 63.2605 72.8946 63.3273 78.5603 63.3915C78.1687 64.6476 77.7701 65.9015 77.3686 67.1544C77.1474 67.8529 76.9262 68.5514 76.6983 69.2711C75.2731 73.0235 72.8606 76.4941 69.3556 78.5357C67.4176 78.7171 65.6218 78.7855 63.6855 78.7599C63.1144 78.7602 62.5433 78.7605 61.9549 78.7608C60.0693 78.7594 58.1841 78.7441 56.2986 78.7286C54.9904 78.7249 53.6822 78.7221 52.3741 78.7201C48.9325 78.7126 45.4911 78.6932 42.0496 78.6713C38.5371 78.6511 35.0247 78.6421 31.5123 78.6321C24.6215 78.611 17.7309 78.5773 10.8403 78.5357C10.7789 73.1892 10.7324 67.8428 10.704 62.496C10.6904 60.0123 10.672 57.529 10.6419 55.0455C10.613 52.6418 10.5975 50.2384 10.5908 47.8346C10.586 46.9246 10.5766 46.0146 10.5622 45.1047C10.4144 35.3399 12.4711 27.5125 18.9766 20.1402C25.1379 14.7044 30.9457 11.2897 39.2936 11.2955C40.0178 11.2947 40.0178 11.2947 40.7567 11.2938C42.3749 11.2927 43.9931 11.2964 45.6114 11.3C46.7712 11.3001 47.9311 11.3 49.091 11.2997C52.2409 11.2995 55.3908 11.3034 58.5407 11.3079C61.8322 11.3121 65.1236 11.3124 68.415 11.3132C74.6484 11.3153 80.8817 11.3207 87.1151 11.3273C94.2113 11.3346 101.307 11.3383 108.404 11.3416C123.002 11.3485 137.6 11.36 152.198 11.3747Z" fill="#0085FF"></path>
</svg><style>@media (prefers-color-scheme: light) { :root { filter: none; } }
@media (prefers-color-scheme: dark) { :root { filter: none; } }
</style></svg>