<svg viewBox="0 0 751 132" fill="none" xmlns="http://www.w3.org/2000/svg" style="height: 3rem;">
    <path d="M49.664 16.4C57.856 16.4 63.9573 18.32 67.968 22.16C71.9787 26 73.984 31.6747 73.984 39.184C73.984 43.1947 73.0027 46.736 71.04 49.808C69.0773 52.7947 66.176 55.1413 62.336 56.848C58.496 58.4693 53.76 59.28 48.128 59.28L48.64 53.52C51.2853 53.52 54.3147 53.904 57.728 54.672C61.1413 55.3547 64.4267 56.6347 67.584 58.512C70.8267 60.304 73.472 62.864 75.52 66.192C77.6533 69.4347 78.72 73.616 78.72 78.736C78.72 84.368 77.7813 88.976 75.904 92.56C74.112 96.144 71.7227 98.9173 68.736 100.88C65.7493 102.843 62.5493 104.208 59.136 104.976C55.7227 105.659 52.4373 106 49.28 106H17.408C15.1893 106 13.312 105.275 11.776 103.824C10.3253 102.288 9.6 100.411 9.6 98.192V24.208C9.6 21.9893 10.3253 20.1547 11.776 18.704C13.312 17.168 15.1893 16.4 17.408 16.4H49.664ZM47.36 31.504H24.576L26.24 29.456V52.624L24.704 51.472H47.744C50.2187 51.472 52.4373 50.6613 54.4 49.04C56.3627 47.4187 57.344 45.072 57.344 42C57.344 38.3307 56.4053 35.6853 54.528 34.064C52.736 32.3573 50.3467 31.504 47.36 31.504ZM48.384 66.576H25.088L26.24 65.552V92.56L24.96 91.28H49.28C53.2053 91.28 56.32 90.256 58.624 88.208C60.928 86.0747 62.08 82.9173 62.08 78.736C62.08 74.896 61.312 72.1227 59.776 70.416C58.24 68.7093 56.4053 67.6427 54.272 67.216C52.1387 66.7893 50.176 66.576 48.384 66.576ZM108.46 98.192C108.46 100.411 107.692 102.288 106.156 103.824C104.705 105.275 102.871 106 100.652 106C98.5187 106 96.7267 105.275 95.276 103.824C93.8253 102.288 93.1 100.411 93.1 98.192V19.088C93.1 16.8693 93.8253 15.0347 95.276 13.584C96.812 12.048 98.6893 11.28 100.908 11.28C103.127 11.28 104.919 12.048 106.284 13.584C107.735 15.0347 108.46 16.8693 108.46 19.088V98.192ZM176.511 37.52C178.73 37.52 180.564 38.288 182.015 39.824C183.466 41.2747 184.191 43.1093 184.191 45.328V77.84C184.191 86.8853 181.674 94.0533 176.639 99.344C171.604 104.635 164.351 107.28 154.879 107.28C145.407 107.28 138.154 104.635 133.119 99.344C128.17 94.0533 125.695 86.8853 125.695 77.84V45.328C125.695 43.1093 126.42 41.2747 127.871 39.824C129.322 38.288 131.156 37.52 133.375 37.52C135.594 37.52 137.428 38.288 138.879 39.824C140.33 41.2747 141.055 43.1093 141.055 45.328V77.84C141.055 83.0453 142.207 86.928 144.511 89.488C146.815 91.9627 150.271 93.2 154.879 93.2C159.572 93.2 163.071 91.9627 165.375 89.488C167.679 86.928 168.831 83.0453 168.831 77.84V45.328C168.831 43.1093 169.556 41.2747 171.007 39.824C172.458 38.288 174.292 37.52 176.511 37.52ZM233.076 107.28C225.823 107.28 219.508 105.787 214.132 102.8C208.841 99.728 204.745 95.5893 201.844 90.384C199.028 85.1787 197.62 79.2907 197.62 72.72C197.62 65.04 199.156 58.512 202.228 53.136C205.385 47.6747 209.481 43.4933 214.516 40.592C219.551 37.6907 224.884 36.24 230.516 36.24C234.868 36.24 238.964 37.136 242.804 38.928C246.729 40.72 250.185 43.1947 253.172 46.352C256.159 49.424 258.505 53.008 260.212 57.104C262.004 61.2 262.9 65.552 262.9 70.16C262.815 72.208 262.004 73.872 260.468 75.152C258.932 76.432 257.14 77.072 255.092 77.072H206.196L202.356 64.272H249.332L246.516 66.832V63.376C246.345 60.9013 245.449 58.6827 243.828 56.72C242.292 54.7573 240.329 53.2213 237.94 52.112C235.636 50.9173 233.161 50.32 230.516 50.32C227.956 50.32 225.567 50.6613 223.348 51.344C221.129 52.0267 219.209 53.1787 217.588 54.8C215.967 56.4213 214.687 58.5973 213.748 61.328C212.809 64.0587 212.34 67.5147 212.34 71.696C212.34 76.304 213.279 80.2293 215.156 83.472C217.119 86.6293 219.593 89.0613 222.58 90.768C225.652 92.3893 228.895 93.2 232.308 93.2C235.465 93.2 237.983 92.944 239.86 92.432C241.737 91.92 243.231 91.3227 244.34 90.64C245.535 89.872 246.601 89.232 247.54 88.72C249.076 87.952 250.527 87.568 251.892 87.568C253.769 87.568 255.305 88.208 256.5 89.488C257.78 90.768 258.42 92.2613 258.42 93.968C258.42 96.272 257.225 98.3627 254.836 100.24C252.617 102.117 249.503 103.781 245.492 105.232C241.481 106.597 237.343 107.28 233.076 107.28Z" fill="#0085FF"/>
    <path d="M381.92 16.016C383.285 16.016 384.523 16.4853 385.632 17.424C386.827 18.3627 387.424 19.6853 387.424 21.392C387.424 21.9893 387.339 22.6293 387.168 23.312L359.904 102.672C359.563 103.696 358.923 104.507 357.984 105.104C357.131 105.616 356.235 105.915 355.296 106C354.272 106 353.291 105.744 352.352 105.232C351.413 104.635 350.688 103.781 350.176 102.672L328.8 50.96L329.824 51.344L308.576 102.672C308.064 103.781 307.339 104.635 306.4 105.232C305.461 105.744 304.48 106 303.456 106C302.517 105.915 301.579 105.616 300.64 105.104C299.787 104.507 299.189 103.696 298.848 102.672L271.584 23.312C271.413 22.6293 271.328 22.032 271.328 21.52C271.328 19.8133 271.925 18.4907 273.12 17.552C274.4 16.528 275.68 16.016 276.96 16.016C277.984 16.016 278.965 16.3147 279.904 16.912C280.843 17.5093 281.483 18.32 281.824 19.344L305.76 90H303.968L324.832 38.416C325.259 37.392 325.899 36.5813 326.752 35.984C327.605 35.3867 328.587 35.088 329.696 35.088C330.72 35.088 331.659 35.3867 332.512 35.984C333.451 36.5813 334.091 37.392 334.432 38.416L354.656 89.232L353.12 89.872L376.928 19.344C377.269 18.32 377.909 17.5093 378.848 16.912C379.787 16.3147 380.811 16.016 381.92 16.016ZM410.078 100.752C410.078 102.203 409.566 103.44 408.542 104.464C407.603 105.488 406.409 106 404.958 106C403.422 106 402.185 105.488 401.246 104.464C400.307 103.44 399.838 102.203 399.838 100.752V43.92C399.838 42.4693 400.307 41.2747 401.246 40.336C402.27 39.312 403.507 38.8 404.958 38.8C406.409 38.8 407.603 39.312 408.542 40.336C409.566 41.2747 410.078 42.4693 410.078 43.92V100.752ZM404.958 30.224C402.825 30.224 401.246 29.7973 400.222 28.944C399.198 28.0907 398.686 26.768 398.686 24.976V23.184C398.686 21.392 399.241 20.0693 400.35 19.216C401.459 18.3627 403.038 17.936 405.086 17.936C407.134 17.936 408.67 18.3627 409.694 19.216C410.718 20.0693 411.23 21.392 411.23 23.184V24.976C411.23 26.768 410.675 28.0907 409.566 28.944C408.542 29.7973 407.006 30.224 404.958 30.224ZM461.368 38.16C467.171 38.16 471.736 39.3547 475.064 41.744C478.392 44.1333 480.739 47.3333 482.104 51.344C483.555 55.3547 484.28 59.8347 484.28 64.784V100.752C484.28 102.203 483.768 103.44 482.744 104.464C481.805 105.488 480.611 106 479.16 106C477.709 106 476.472 105.488 475.448 104.464C474.509 103.44 474.04 102.203 474.04 100.752V65.04C474.04 61.7973 473.528 58.896 472.504 56.336C471.565 53.6907 469.944 51.6 467.64 50.064C465.421 48.4427 462.349 47.632 458.424 47.632C454.84 47.632 451.555 48.4427 448.568 50.064C445.581 51.6 443.192 53.6907 441.4 56.336C439.608 58.896 438.712 61.7973 438.712 65.04V100.752C438.712 102.203 438.2 103.44 437.176 104.464C436.237 105.488 435.043 106 433.592 106C432.141 106 430.904 105.488 429.88 104.464C428.941 103.44 428.472 102.203 428.472 100.752V44.944C428.472 43.4933 428.941 42.2987 429.88 41.36C430.904 40.336 432.141 39.824 433.592 39.824C435.128 39.824 436.365 40.336 437.304 41.36C438.243 42.2987 438.712 43.4933 438.712 44.944V54.032L436.152 56.848C436.579 54.6293 437.56 52.4107 439.096 50.192C440.632 47.888 442.552 45.84 444.856 44.048C447.16 42.256 449.72 40.848 452.536 39.824C455.352 38.7147 458.296 38.16 461.368 38.16ZM530.998 38.16C534.667 38.16 538.081 38.8 541.238 40.08C544.395 41.2747 547.126 42.8533 549.43 44.816C551.819 46.7787 553.654 48.8267 554.934 50.96C556.299 53.0933 556.982 55.0987 556.982 56.976L554.55 55.44V44.304C554.55 42.8533 555.019 41.6587 555.958 40.72C556.897 39.696 558.134 39.184 559.67 39.184C561.121 39.184 562.315 39.696 563.254 40.72C564.278 41.6587 564.79 42.8533 564.79 44.304V100.368C564.79 107.365 563.297 113.168 560.31 117.776C557.409 122.384 553.483 125.84 548.534 128.144C543.585 130.448 538.038 131.6 531.894 131.6C529.334 131.6 526.518 131.259 523.446 130.576C520.374 129.893 517.643 129.04 515.254 128.016C512.865 127.077 511.329 126.096 510.646 125.072C509.366 124.219 508.555 123.237 508.214 122.128C507.958 121.104 508.171 120.123 508.854 119.184C509.622 117.989 510.603 117.392 511.798 117.392C513.078 117.392 514.657 117.776 516.534 118.544C517.302 118.8 518.497 119.227 520.118 119.824C521.825 120.421 523.702 120.933 525.75 121.36C527.883 121.872 529.974 122.128 532.022 122.128C539.275 122.128 544.822 120.208 548.662 116.368C552.587 112.613 554.55 107.621 554.55 101.392V89.488L555.958 90.128C555.446 92.5173 554.379 94.736 552.758 96.784C551.222 98.832 549.302 100.667 546.998 102.288C544.779 103.824 542.305 105.061 539.574 106C536.843 106.853 534.07 107.28 531.254 107.28C525.281 107.28 519.905 105.787 515.126 102.8C510.347 99.8133 506.55 95.7173 503.734 90.512C501.003 85.3067 499.638 79.376 499.638 72.72C499.638 65.9787 501.003 60.0053 503.734 54.8C506.55 49.5947 510.305 45.5413 514.998 42.64C519.777 39.6533 525.11 38.16 530.998 38.16ZM532.278 47.632C527.926 47.632 524.001 48.7413 520.502 50.96C517.089 53.0933 514.401 56.0373 512.438 59.792C510.561 63.5467 509.622 67.856 509.622 72.72C509.622 77.4133 510.561 81.68 512.438 85.52C514.401 89.2747 517.089 92.2613 520.502 94.48C524.001 96.6987 527.926 97.808 532.278 97.808C536.715 97.808 540.641 96.7413 544.054 94.608C547.467 92.3893 550.155 89.4027 552.118 85.648C554.081 81.8933 555.062 77.584 555.062 72.72C555.062 67.7707 554.081 63.4187 552.118 59.664C550.155 55.9093 547.467 52.9653 544.054 50.832C540.641 48.6987 536.715 47.632 532.278 47.632Z" fill="black"/>
    <path d="M738.527 16.014C738.044 16.0119 737.561 16.0099 737.064 16.0078C735.453 16.0025 733.842 16.0067 732.231 16.0108C731.073 16.009 729.915 16.0067 728.757 16.0038C725.615 15.9978 722.473 16.0001 719.33 16.0043C716.034 16.0077 712.739 16.0046 709.443 16.0025C703.902 16.0001 698.362 16.0033 692.822 16.0095C686.435 16.0167 680.048 16.0144 673.661 16.0071C668.166 16.0011 662.671 16.0003 657.176 16.0038C653.899 16.0058 650.622 16.0061 647.346 16.0017C644.259 15.9979 641.172 16.0006 638.085 16.0082C636.959 16.0099 635.833 16.0094 634.706 16.0065C620.938 15.974 608.388 17.6875 597.744 27.4159C590.473 35.2243 586.285 44.6586 586.204 55.3392C586.2 55.8151 586.196 56.2909 586.191 56.7813C586.178 58.344 586.171 59.9068 586.164 61.4696C586.161 62.0059 586.159 62.5421 586.156 63.0947C586.142 65.9297 586.133 68.7648 586.127 71.5999C586.119 74.5225 586.097 77.4447 586.071 80.3672C586.053 82.621 586.048 84.8748 586.046 87.1287C586.042 88.2061 586.035 89.2834 586.023 90.3607C586.006 91.8688 586.007 93.3761 586.012 94.8842C586.008 95.7408 586.004 96.5974 586 97.4799C586.388 100.294 587.073 101.629 588.951 103.754C592.5 105.825 595.598 106.014 599.584 105.985C600.464 105.99 600.464 105.99 601.361 105.995C603.29 106.004 605.218 105.998 607.147 105.992C608.495 105.993 609.844 105.995 611.192 105.997C614.016 106 616.839 105.996 619.663 105.987C623.269 105.975 626.874 105.982 630.48 105.994C633.264 106.001 636.049 105.999 638.834 105.994C640.162 105.992 641.491 105.994 642.82 105.998C644.684 106.003 646.548 105.996 648.412 105.985C648.953 105.989 649.494 105.993 650.051 105.997C656.267 105.93 662.096 104.339 666.533 99.8032C671.24 93.7336 673.98 86.8051 675.737 79.3915C676.555 79.4221 677.373 79.4527 678.216 79.4841C687.737 79.7363 694.545 78.4656 702.036 72.1487C706.039 68.3041 710.2 63.4269 711.698 57.9742C712.209 56.1585 712.584 55.1054 713.871 53.7124C716.453 52.9092 718.968 52.5336 721.64 52.1717C727.837 51.3044 733.254 48.21 738.198 44.4942C738.726 44.1054 739.255 43.7167 739.8 43.3162C741.749 41.6322 743.275 39.7539 744.813 37.704C745.09 37.3462 745.367 36.9885 745.652 36.6199C748.936 32.3016 751.208 28.7616 750.985 23.1566C750.5 20.3552 749.568 19.337 747.402 17.4981C744.381 16.2296 741.787 16.0159 738.527 16.014ZM738.198 27.3747C737.785 28.1075 737.373 28.8403 736.949 29.5953C736.717 30.0075 736.485 30.4197 736.246 30.8444C732.681 36.8313 726.13 39.7433 719.788 41.8604C717.474 42.4109 715.334 42.6032 712.958 42.6097C712.255 42.6133 711.553 42.6169 710.829 42.6206C710.066 42.6213 709.302 42.622 708.515 42.6227C707.705 42.626 706.896 42.6294 706.061 42.6328C704.304 42.6399 702.547 42.6458 700.79 42.65C698.01 42.6571 695.231 42.6704 692.451 42.685C684.549 42.7257 676.646 42.7614 668.744 42.7831C664.376 42.7952 660.009 42.8143 655.641 42.8411C653.332 42.8549 651.022 42.8651 648.712 42.8666C646.137 42.8683 643.562 42.8851 640.987 42.9031C640.224 42.9011 639.46 42.8991 638.673 42.8971C637.971 42.9044 637.268 42.9117 636.545 42.9192C635.936 42.9214 635.328 42.9235 634.701 42.9258C632.637 43.2313 631.391 43.9254 629.714 45.1526C628.944 47.1074 628.993 48.1719 629.468 50.2144C630.676 52.2492 631.382 52.3974 633.659 53.0539C635.855 53.2543 638.044 53.2588 640.249 53.2639C641.24 53.2738 641.24 53.2738 642.252 53.2839C644.432 53.3042 646.613 53.3154 648.794 53.3265C650.307 53.3389 651.821 53.3518 653.335 53.3652C657.315 53.399 661.296 53.4251 665.277 53.4496C669.34 53.4759 673.404 53.5096 677.467 53.5426C685.438 53.6063 693.408 53.6619 701.379 53.7124C699.348 60.0765 695.494 64.4644 689.544 67.5396C685.958 69.0559 682.671 69.0495 678.846 69.0455C678.175 69.05 677.504 69.0545 676.813 69.0592C675.361 69.0681 673.91 69.0741 672.458 69.0774C670.162 69.0829 667.866 69.0964 665.57 69.112C659.871 69.1491 654.171 69.1724 648.472 69.196C643.65 69.2166 638.829 69.2424 634.007 69.2752C631.742 69.2885 629.477 69.2939 627.212 69.2991C625.829 69.3077 624.446 69.3166 623.063 69.3259C622.115 69.3249 622.115 69.3249 621.147 69.3239C620.569 69.3294 619.991 69.3348 619.396 69.3404C618.894 69.3424 618.392 69.3443 617.874 69.3463C616.565 69.5149 616.565 69.5149 614.592 70.8318C614.043 73.1176 613.7 74.7538 614.469 77.0047C615.25 78.0747 615.25 78.0747 616.565 78.7331C618.082 78.8129 619.601 78.85 621.12 78.8683C621.588 78.8748 622.056 78.8813 622.539 78.8881C624.09 78.9089 625.641 78.9252 627.192 78.9414C628.266 78.955 629.34 78.9688 630.415 78.9829C633.244 79.0193 636.074 79.0518 638.904 79.0835C641.79 79.1166 644.677 79.1533 647.564 79.1896C653.229 79.2605 658.895 79.3273 664.56 79.3915C664.169 80.6476 663.77 81.9015 663.369 83.1544C663.147 83.8529 662.926 84.5514 662.698 85.2711C661.273 89.0235 658.861 92.4941 655.356 94.5357C653.418 94.7171 651.622 94.7855 649.686 94.7599C649.114 94.7602 648.543 94.7605 647.955 94.7608C646.069 94.7594 644.184 94.7441 642.299 94.7286C640.99 94.7249 639.682 94.7221 638.374 94.7201C634.932 94.7126 631.491 94.6932 628.05 94.6713C624.537 94.6511 621.025 94.6421 617.512 94.6321C610.622 94.611 603.731 94.5773 596.84 94.5357C596.779 89.1892 596.732 83.8428 596.704 78.496C596.69 76.0123 596.672 73.529 596.642 71.0455C596.613 68.6418 596.598 66.2384 596.591 63.8346C596.586 62.9246 596.577 62.0146 596.562 61.1047C596.414 51.3399 598.471 43.5125 604.977 36.1402C611.138 30.7044 616.946 27.2897 625.294 27.2955C626.018 27.2947 626.018 27.2947 626.757 27.2938C628.375 27.2927 629.993 27.2964 631.611 27.3C632.771 27.3001 633.931 27.3 635.091 27.2997C638.241 27.2995 641.391 27.3034 644.541 27.3079C647.832 27.3121 651.124 27.3124 654.415 27.3132C660.648 27.3153 666.882 27.3207 673.115 27.3273C680.211 27.3346 687.307 27.3383 694.404 27.3416C709.002 27.3485 723.6 27.36 738.198 27.3747Z" fill="#0085FF"/>
</svg>
